{
  "accessors": [
    {
      "bufferView": 2,
      "componentType": 5126,
      "count": 2703,
      "max": [
        8.043600082397461,
        7.582799911499023,
        14.674200057983398
      ],
      "min": [
        -7.97730016708374,
        -8.515800476074219,
        0.28450000286102295
      ],
      "type": "VEC3"
    },
    {
      "bufferView": 2,
      "byteOffset": 32436,
      "componentType": 5126,
      "count": 2703,
      "max": [
        0.9963776469230652,
        0.9966010451316833,
        0.9998953342437744
      ],
      "min": [
        -0.9963710308074951,
        -0.9965689778327942,
        -1.0
      ],
      "type": "VEC3"
    },
    {
      "bufferView": 1,
      "componentType": 5126,
      "count": 2703,
      "max": [
        0.1671999990940094,
        0.1655000001192093
      ],
      "min": [
        -0.16740000247955322,
        -0.12449999898672104
      ],
      "type": "VEC2"
    },
    {
      "bufferView": 0,
      "componentType": 5125,
      "count": 4611,
      "type": "SCALAR"
    },
    {
      "bufferView": 2,
      "byteOffset": 64872,
      "componentType": 5126,
      "count": 2469,
      "max": [
        9.238100051879883,
        10.030099868774414,
        31.76020050048828
      ],
      "min": [
        -9.238100051879883,
        -10.030099868774414,
        15.460399627685547
      ],
      "type": "VEC3"
    },
    {
      "bufferView": 2,
      "byteOffset": 94500,
      "componentType": 5126,
      "count": 2469,
      "max": [
        0.9951817989349365,
        0.9880277514457703,
        1.0
      ],
      "min": [
        -0.9951817989349365,
        -0.999616801738739,
        -0.9999923706054688
      ],
      "type": "VEC3"
    },
    {
      "bufferView": 1,
      "byteOffset": 21624,
      "componentType": 5126,
      "count": 2469,
      "max": [
        0.0,
        0.0
      ],
      "min": [
        0.0,
        0.0
      ],
      "type": "VEC2"
    },
    {
      "bufferView": 0,
      "byteOffset": 18444,
      "componentType": 5125,
      "count": 11334,
      "type": "SCALAR"
    },
    {
      "bufferView": 2,
      "byteOffset": 124128,
      "componentType": 5126,
      "count": 680,
      "max": [
        4.968100070953369,
        3.043299913406372,
        16.82390022277832
      ],
      "min": [
        -4.968100070953369,
        -5.205399990081787,
        15.326600074768066
      ],
      "type": "VEC3"
    },
    {
      "bufferView": 2,
      "byteOffset": 132288,
      "componentType": 5126,
      "count": 680,
      "max": [
        0.990115225315094,
        0.8709709048271179,
        0.13559424877166748
      ],
      "min": [
        -0.990115225315094,
        -0.8155202269554138,
        -0.9956573843955994
      ],
      "type": "VEC3"
    },
    {
      "bufferView": 1,
      "byteOffset": 41376,
      "componentType": 5126,
      "count": 680,
      "max": [
        0.0,
        0.0
      ],
      "min": [
        0.0,
        0.0
      ],
      "type": "VEC2"
    },
    {
      "bufferView": 0,
      "byteOffset": 63780,
      "componentType": 5125,
      "count": 720,
      "type": "SCALAR"
    },
    {
      "bufferView": 2,
      "byteOffset": 140448,
      "componentType": 5126,
      "count": 5768,
      "max": [
        8.043700218200684,
        7.583000183105469,
        16.15250015258789
      ],
      "min": [
        -7.977399826049805,
        -8.515999794006348,
        0.0
      ],
      "type": "VEC3"
    },
    {
      "bufferView": 2,
      "byteOffset": 209664,
      "componentType": 5126,
      "count": 5768,
      "max": [
        0.998890221118927,
        0.9986987113952637,
        0.9958452582359314
      ],
      "min": [
        -0.998890221118927,
        -0.9986884593963623,
        -1.0
      ],
      "type": "VEC3"
    },
    {
      "bufferView": 1,
      "byteOffset": 46816,
      "componentType": 5126,
      "count": 5768,
      "max": [
        0.0,
        0.0
      ],
      "min": [
        0.0,
        0.0
      ],
      "type": "VEC2"
    },
    {
      "bufferView": 0,
      "byteOffset": 66660,
      "componentType": 5125,
      "count": 8979,
      "type": "SCALAR"
    }
  ],
  "asset": {
    "extras": {
      "author": "valeduque_portfolio (https://sketchfab.com/valeduque_portfolio)",
      "license": "CC-BY-4.0 (http://creativecommons.org/licenses/by/4.0/)",
      "source": "https://sketchfab.com/3d-models/eames-chair-a699822777e94849b1417a2a3c185e10",
      "title": "Eames chair"
    },
    "generator": "Sketchfab-12.68.0",
    "version": "2.0"
  },
  "bufferViews": [
    {
      "buffer": 0,
      "byteLength": 102576,
      "name": "floatBufferViews",
      "target": 34963
    },
    {
      "buffer": 0,
      "byteLength": 92960,
      "byteOffset": 102576,
      "byteStride": 8,
      "name": "floatBufferViews",
      "target": 34962
    },
    {
      "buffer": 0,
      "byteLength": 278880,
      "byteOffset": 195536,
      "byteStride": 12,
      "name": "floatBufferViews",
      "target": 34962
    }
  ],
  "buffers": [
    {
      "byteLength": 474416,
      "uri": "scene.bin"
    }
  ],
  "materials": [
    {
      "doubleSided": true,
      "name": "Material1",
      "pbrMetallicRoughness": {
        "metallicFactor": 0.0,
        "roughnessFactor": 0.6
      }
    },
    {
      "doubleSided": true,
      "name": "onderstel",
      "pbrMetallicRoughness": {
        "baseColorFactor": [
          0.16111610572391852,
          0.16111610572391852,
          0.16111610572391852,
          1.0
        ],
        "metallicFactor": 0.0,
        "roughnessFactor": 0.6
      }
    },
    {
      "doubleSided": true,
      "name": "plastic_wit",
      "pbrMetallicRoughness": {
        "metallicFactor": 0.0,
        "roughnessFactor": 0.6
      }
    },
    {
      "doubleSided": true,
      "name": "skp_front_default",
      "pbrMetallicRoughness": {
        "metallicFactor": 0.0,
        "roughnessFactor": 0.6
      }
    }
  ],
  "meshes": [
    {
      "name": "Object_0",
      "primitives": [
        {
          "attributes": {
            "NORMAL": 1,
            "POSITION": 0,
            "TEXCOORD_0": 2
          },
          "indices": 3,
          "material": 0,
          "mode": 4
        }
      ]
    },
    {
      "name": "Object_1",
      "primitives": [
        {
          "attributes": {
            "NORMAL": 5,
            "POSITION": 4,
            "TEXCOORD_0": 6
          },
          "indices": 7,
          "material": 2,
          "mode": 4
        }
      ]
    },
    {
      "name": "Object_2",
      "primitives": [
        {
          "attributes": {
            "NORMAL": 9,
            "POSITION": 8,
            "TEXCOORD_0": 10
          },
          "indices": 11,
          "material": 3,
          "mode": 4
        }
      ]
    },
    {
      "name": "Object_3",
      "primitives": [
        {
          "attributes": {
            "NORMAL": 13,
            "POSITION": 12,
            "TEXCOORD_0": 14
          },
          "indices": 15,
          "material": 1,
          "mode": 4
        }
      ]
    }
  ],
  "nodes": [
    {
      "children": [
        1
      ],
      "matrix": [
        0.996758759021759,
        6.796690472389155e-17,
        -0.08044875413179398,
        0.0,
        -0.08044857531785965,
        0.0021095683332534856,
        -0.9967565536499023,
        0.0,
        0.00016971213335637003,
        0.9999977946281433,
        0.0021027305629106596,
        0.0,
        -0.0026954265777021646,
        3.534553616192002e-05,
        -0.03339148685336113,
        1.0
      ],
      "name": "Sketchfab_model"
    },
    {
      "children": [
        2,
        3,
        4,
        5
      ],
      "name": "3d-model.obj.cleaner.materialmerger.gles"
    },
    {
      "mesh": 0,
      "name": "Object_2"
    },
    {
      "mesh": 1,
      "name": "Object_3"
    },
    {
      "mesh": 2,
      "name": "Object_4"
    },
    {
      "mesh": 3,
      "name": "Object_5"
    }
  ],
  "scene": 0,
  "scenes": [
    {
      "name": "Sketchfab_Scene",
      "nodes": [
        0
      ]
    }
  ]
}
